<svg height="512" viewBox="0 0 128 128" width="512" xmlns="http://www.w3.org/2000/svg"><g id="Circle_Grid" data-name="Circle Grid"><circle cx="64" cy="64" fill="#3b5059" r="64"/></g><g id="icon"><path d="m23 31.183h82v46.768h-82z" fill="#2cbfae"/><path d="m26.133 34.316h75.735v40.503h-75.735z" fill="#16a897"/><path d="m29.947 63.377v-17.619a7.628 7.628 0 0 0 7.628-7.628h52.85a7.628 7.628 0 0 0 7.628 7.628v17.619a7.628 7.628 0 0 0 -7.628 7.623h-52.85a7.628 7.628 0 0 0 -7.628-7.623z" fill="#2cbfae"/><path d="m73.7 54.567c0 7.247-4.348 13.11-9.7 13.11s-9.7-5.864-9.7-13.11 4.348-13.11 9.7-13.11 9.7 5.873 9.7 13.11z" fill="#16a897"/><path d="m63.292 63.12v-2.1a6.073 6.073 0 0 1 -3.192-.92l.5-1.4a5.552 5.552 0 0 0 3 .9c1.479 0 2.479-.854 2.479-2.042 0-1.146-.813-1.854-2.355-2.48-2.124-.833-3.437-1.792-3.437-3.6a3.417 3.417 0 0 1 3.145-3.355v-2.1h1.298v2.021a5.547 5.547 0 0 1 2.708.73l-.521 1.375a5.032 5.032 0 0 0 -2.625-.708c-1.6 0-2.209.959-2.209 1.792 0 1.083.77 1.625 2.584 2.375 2.146.875 3.229 1.959 3.229 3.813a3.624 3.624 0 0 1 -3.296 3.533v2.166z" fill="#eeefee"/><ellipse cx="85.573" cy="54.567" fill="#16a897" rx="2.765" ry="2.756"/><ellipse cx="42.427" cy="54.567" fill="#16a897" rx="2.765" ry="2.756"/><path d="m23 77.951h82v18.865h-82z" fill="#16a897"/><g fill="#2cbfae"><path d="m23 81.084h82v3.133h-82z"/><path d="m23 87.349h82v3.133h-82z"/><path d="m23 93.614h82v3.133h-82z"/></g></g></svg>