<?xml version="1.0" encoding="iso-8859-1"?>
<!-- Generator: Adobe Illustrator 19.0.0, SVG Export Plug-In . SVG Version: 6.00 Build 0)  -->
<svg version="1.1" id="Layer_1" xmlns="http://www.w3.org/2000/svg" xmlns:xlink="http://www.w3.org/1999/xlink" x="0px" y="0px"
	 viewBox="0 0 491.52 491.52" style="enable-background:new 0 0 491.52 491.52;" xml:space="preserve">
<circle style="fill:#334D5C;" cx="245.76" cy="245.76" r="245.76"/>
<path style="opacity:0.1;enable-background:new    ;" d="M377.549,104.96H113.971c-4.967,0-9.011,4.045-9.011,9.011v92.058
	c0,2.56,1.075,4.915,2.816,6.503l137.165,137.165v36.864l88.71,88.711C425.957,439.897,491.52,350.51,491.52,245.76
	c0-11.121-0.81-22.048-2.241-32.777L384.051,107.776C382.464,106.035,380.109,104.96,377.549,104.96z"/>
<path style="fill:#27A2DB;" d="M377.541,104.96H113.979c-4.981,0-9.019,4.038-9.019,9.019v92.042c0,4.981,4.037,9.019,9.019,9.019
	h263.563c4.981,0,9.019-4.038,9.019-9.019v-92.042C386.56,108.998,382.522,104.96,377.541,104.96z"/>
<g>
	<path style="fill:#FFFFFF;" d="M146.559,137.884c-3.002,0-5.463,0.612-7.383,1.835c-1.928,1.227-2.888,3.076-2.888,5.552
		c0,2.479,0.96,4.371,2.888,5.68c1.921,1.312,6.01,2.728,12.277,4.239c6.259,1.519,10.982,3.645,14.162,6.38
		c3.172,2.742,4.759,6.775,4.759,12.106c0,5.331-2.006,9.659-6.032,12.981c-4.019,3.322-9.289,4.983-15.819,4.983
		c-9.553,0-18.031-3.293-25.429-9.876l6.466-7.782c6.174,5.363,12.583,8.041,19.226,8.041c3.322,0,5.961-0.711,7.91-2.141
		c1.956-1.426,2.931-3.322,2.931-5.68c0-2.361-0.918-4.197-2.753-5.509c-1.835-1.309-5-2.504-9.482-3.581
		c-4.488-1.078-7.902-2.07-10.228-2.973c-2.333-0.903-4.403-2.081-6.21-3.539c-3.613-2.738-5.413-6.935-5.413-12.586
		c0-5.651,2.049-10.008,6.16-13.066c4.104-3.059,9.19-4.588,15.25-4.588c3.905,0,7.782,0.64,11.623,1.921
		c3.848,1.284,7.17,3.091,9.965,5.42l-5.505,7.778c-1.807-1.629-4.254-2.97-7.341-4.019S149.561,137.884,146.559,137.884z"/>
	<path style="fill:#FFFFFF;" d="M226.046,129.843v9.702h-32.599v16.171h29.277v9.176h-29.277v16.346h33.651v9.702h-43.965v-61.097
		H226.046z"/>
	<path style="fill:#FFFFFF;" d="M286.101,129.843h10.314v61.097h-11.189l-34.612-44.577v44.577h-10.314v-61.097h10.314
		l35.486,45.626V129.843z"/>
	<path style="fill:#FFFFFF;" d="M359.599,137.841c5.89,5.331,8.827,12.746,8.827,22.246c0,9.496-2.852,17.014-8.564,22.548
		c-5.712,5.537-14.454,8.304-26.218,8.304h-20.279v-61.097h20.976C345.295,129.843,353.717,132.51,359.599,137.841z
		 M358.027,160.347c0-13.984-8.009-20.976-24.035-20.976h-10.314v41.867h11.452c7.397,0,13.066-1.76,17-5.288
		C356.064,172.425,358.027,167.225,358.027,160.347z"/>
</g>
<path style="fill:#F6C358;" d="M334.839,228.029c-2.72,0-5.257,0.733-7.437,1.986v-1.392c0-7.812-6.333-14.144-14.144-14.144
	c-3.628,0-6.926,1.378-9.43,3.623v-1.602c0-7.812-6.333-14.144-14.144-14.144c-4.513,0-8.524,2.121-11.113,5.413v-40.101
	c0-7.812-6.333-14.144-14.144-14.144s-14.144,6.333-14.144,14.144v96.683c-4.903-8.579-12.69-17.333-21.825-21.113
	c-2.453-1.015-5.046-1.819-7.7-1.812c-2.654,0.007-5.395,0.914-7.181,2.877c-2.526,2.778-2.648,7.072-1.488,10.643
	c1.161,3.571,3.391,6.677,5.214,9.959c4.285,7.713,6.332,18.267,8.979,26.684c2.646,8.417,6.117,16.916,12.509,22.999
	c2.928,2.786,6.375,4.969,9.417,7.631c4.608,4.032,8.248,9.163,10.531,14.845h61.492h11.48
	c12.054-10.213,15.586-34.763,17.741-61.629v-33.26C349.45,234.362,342.908,228.029,334.839,228.029z"/>
<rect x="244.925" y="335.974" style="fill:#44C4A1;" width="98.417" height="50.601"/>
<circle style="fill:#31978C;" cx="326.431" cy="361.267" r="8.75"/>
<g>
</g>
<g>
</g>
<g>
</g>
<g>
</g>
<g>
</g>
<g>
</g>
<g>
</g>
<g>
</g>
<g>
</g>
<g>
</g>
<g>
</g>
<g>
</g>
<g>
</g>
<g>
</g>
<g>
</g>
</svg>
