<?xml version="1.0" encoding="iso-8859-1"?>
<!-- Generator: Adobe Illustrator 19.0.0, SVG Export Plug-In . SVG Version: 6.00 Build 0)  -->
<svg version="1.1" id="Layer_1" xmlns="http://www.w3.org/2000/svg" xmlns:xlink="http://www.w3.org/1999/xlink" x="0px" y="0px"
	 viewBox="0 0 491.52 491.52" style="enable-background:new 0 0 491.52 491.52;" xml:space="preserve">
<circle style="fill:#334D5C;" cx="245.76" cy="245.76" r="245.76"/>
<path style="opacity:0.1;enable-background:new    ;" d="M302.131,104.981H147.712c-6.451,0-11.725,5.222-11.725,11.674v258.202
	c0,3.226,1.331,6.093,3.379,8.243l0.87,0.819l107.55,107.55c119.613-0.971,218.8-87.374,239.636-201.196l-131.89-131.89
	L302.131,104.981z"/>
<path style="fill:#EBF0F3;" d="M302.115,104.96H147.714c-6.471,0-11.717,5.246-11.717,11.717v258.166
	c0,6.471,5.246,11.717,11.717,11.717h196.093c6.471,0,11.717-5.246,11.717-11.717V158.369L302.115,104.96z"/>
<g>
	<path style="fill:#D5D6DB;" d="M302.115,146.652c0,6.471,5.246,11.717,11.718,11.717h41.691l-53.409-53.409V146.652z"/>
	<rect x="155.423" y="357.222" style="fill:#D5D6DB;" width="180.685" height="9.134"/>
	<rect x="155.423" y="332.047" style="fill:#D5D6DB;" width="180.685" height="9.134"/>
</g>
<rect x="155.423" y="156.831" style="fill:#E56353;" width="118.835" height="9.134"/>
<rect x="155.423" y="131.666" style="fill:#44C4A1;" width="100.239" height="9.134"/>
<rect x="155.423" y="199.588" style="fill:#FFFFFF;" width="180.685" height="113.459"/>
<g>
	<rect x="282.931" y="213.002" style="fill:#EBF0F3;" width="42.107" height="5.12"/>
	<rect x="282.931" y="229.637" style="fill:#EBF0F3;" width="42.107" height="5.12"/>
	<rect x="282.931" y="246.272" style="fill:#EBF0F3;" width="42.107" height="5.12"/>
	<rect x="282.931" y="262.912" style="fill:#EBF0F3;" width="42.107" height="5.12"/>
	<rect x="282.931" y="279.552" style="fill:#EBF0F3;" width="42.107" height="5.12"/>
	<rect x="282.931" y="296.177" style="fill:#EBF0F3;" width="42.107" height="5.12"/>
</g>
<rect x="166.477" y="251.392" style="fill:#27A2DB;" width="19.799" height="49.905"/>
<rect x="194.104" y="225.946" style="fill:#FCD462;" width="19.799" height="75.341"/>
<rect x="221.747" y="211.354" style="fill:#44C4A1;" width="19.799" height="89.948"/>
<rect x="249.359" y="256.307" style="fill:#E56353;" width="19.799" height="44.974"/>
<g>
</g>
<g>
</g>
<g>
</g>
<g>
</g>
<g>
</g>
<g>
</g>
<g>
</g>
<g>
</g>
<g>
</g>
<g>
</g>
<g>
</g>
<g>
</g>
<g>
</g>
<g>
</g>
<g>
</g>
</svg>
