<?xml version="1.0" encoding="iso-8859-1"?>
<!-- Generator: Adobe Illustrator 19.0.0, SVG Export Plug-In . SVG Version: 6.00 Build 0)  -->
<svg version="1.1" id="Layer_1" xmlns="http://www.w3.org/2000/svg" xmlns:xlink="http://www.w3.org/1999/xlink" x="0px" y="0px"
	 viewBox="0 0 491.52 491.52" style="enable-background:new 0 0 491.52 491.52;" xml:space="preserve">
<circle style="fill:#EFC84A;" cx="245.76" cy="245.76" r="245.76"/>
<path style="opacity:0.1;enable-background:new    ;" d="M491.52,245.76c0-3.073-0.12-6.117-0.231-9.163L382.106,127.437
	l-2.202-2.202c-3.43-3.072-7.936-4.915-12.902-4.915c-10.803,0-19.609,8.755-19.609,19.558c0,4.096,1.28,7.885,3.431,11.008
	l-40.294,46.899c-2.56-1.178-5.376-1.946-8.397-1.946c-0.41,0-0.819,0-1.229,0.051l-56.012-56.013
	c-3.584-4.403-9.011-7.219-15.156-7.219c-10.803,0-19.558,8.807-19.558,19.61c0,3.482,0.973,6.707,2.611,9.574l-15.667,15.462
	l-72.346-72.346h-5.12v11.264h-9.574v5.12l9.472,9.472H104.96v5.12l9.523,9.523h-4.403v5.12l9.472,9.472h-9.472v5.12l9.523,9.523
	H104.96v5.12l9.472,9.472h-4.352v5.12l9.523,9.523h-9.523v5.12l9.472,9.472H104.96v5.12l9.523,9.523h-4.403v5.12l9.472,9.472h-9.472
	v5.12l9.472,9.472H104.96v5.12l9.523,9.523h-4.403v5.12l9.472,9.472h-9.472v5.12l9.523,9.523H104.96v5.12l9.472,9.472h-4.352v5.12
	l9.523,9.523h-9.523v5.12l9.472,9.472H104.96v5.12l14.694,14.694v1.997l119.488,119.487c2.206,0.058,4.398,0.167,6.618,0.167
	C381.49,491.52,491.52,381.489,491.52,245.76z"/>
<polygon style="fill:#3A556A;" points="386.56,366.725 124.795,366.725 124.795,104.96 119.675,104.96 119.675,116.216 
	110.08,116.216 110.08,121.336 119.675,121.336 119.675,130.834 104.96,130.834 104.96,135.954 119.675,135.954 119.675,145.449 
	110.08,145.449 110.08,150.569 119.675,150.569 119.675,160.064 110.08,160.064 110.08,165.184 119.675,165.184 119.675,174.679 
	104.96,174.679 104.96,179.799 119.675,179.799 119.675,189.294 110.08,189.294 110.08,194.414 119.675,194.414 119.675,203.911 
	110.08,203.911 110.08,209.031 119.675,209.031 119.675,218.526 104.96,218.526 104.96,223.646 119.675,223.646 119.675,233.141 
	110.08,233.141 110.08,238.261 119.675,238.261 119.675,247.756 110.08,247.756 110.08,252.876 119.675,252.876 119.675,262.371 
	104.96,262.371 104.96,267.491 119.675,267.491 119.675,276.989 110.08,276.989 110.08,282.109 119.675,282.109 119.675,291.604 
	110.08,291.604 110.08,296.724 119.675,296.724 119.675,306.219 104.96,306.219 104.96,311.339 119.675,311.339 119.675,320.834 
	110.08,320.834 110.08,325.954 119.675,325.954 119.675,335.449 110.08,335.449 110.08,340.569 119.675,340.569 119.675,350.066 
	104.96,350.066 104.96,355.186 119.675,355.186 119.675,371.845 136.067,371.845 136.067,386.56 141.188,386.56 141.188,371.845 
	150.685,371.845 150.685,381.44 155.805,381.44 155.805,371.845 165.3,371.845 165.3,381.44 170.42,381.44 170.42,371.845 
	179.915,371.845 179.915,386.56 185.035,386.56 185.035,371.845 194.53,371.845 194.53,381.44 199.65,381.44 199.65,371.845 
	209.145,371.845 209.145,381.44 214.265,381.44 214.265,371.845 223.762,371.845 223.762,386.56 228.882,386.56 228.882,371.845 
	238.377,371.845 238.377,381.44 243.497,381.44 243.497,371.845 252.992,371.845 252.992,381.44 258.112,381.44 258.112,371.845 
	267.607,371.845 267.607,386.56 272.728,386.56 272.728,371.845 282.223,371.845 282.223,381.44 287.342,381.44 287.342,371.845 
	296.84,371.845 296.84,381.44 301.96,381.44 301.96,371.845 311.455,371.845 311.455,386.56 316.575,386.56 316.575,371.845 
	326.07,371.845 326.07,381.44 331.19,381.44 331.19,371.845 340.685,371.845 340.685,381.44 345.805,381.44 345.805,371.845 
	355.3,371.845 355.3,386.56 360.42,386.56 360.42,371.845 369.917,371.845 369.917,381.44 375.038,381.44 375.038,371.845 
	386.56,371.845 "/>
<polygon style="fill:#64798A;" points="164.342,325.659 157.142,318.384 229.507,246.736 301.617,309.651 363.102,238.029 
	370.872,244.699 302.667,324.151 229.947,260.711 "/>
<circle style="fill:#FCD462;" cx="160.742" cy="322.022" r="19.569"/>
<circle style="fill:#27A2DB;" cx="229.729" cy="253.747" r="19.569"/>
<circle style="fill:#44C4A1;" cx="302.131" cy="316.902" r="19.569"/>
<circle style="fill:#E56353;" cx="367.002" cy="241.357" r="19.569"/>
<polygon style="fill:#64798A;" points="164.342,224.187 157.142,216.912 229.507,145.264 301.617,208.179 363.102,136.557 
	370.872,143.227 302.667,222.679 229.947,159.239 "/>
<circle style="fill:#44C4A1;" cx="160.742" cy="220.57" r="19.569"/>
<circle style="fill:#DC8744;" cx="229.729" cy="152.253" r="19.569"/>
<circle style="fill:#E56353;" cx="302.131" cy="215.45" r="19.569"/>
<circle style="fill:#27A2DB;" cx="367.002" cy="139.889" r="19.569"/>
<g>
</g>
<g>
</g>
<g>
</g>
<g>
</g>
<g>
</g>
<g>
</g>
<g>
</g>
<g>
</g>
<g>
</g>
<g>
</g>
<g>
</g>
<g>
</g>
<g>
</g>
<g>
</g>
<g>
</g>
</svg>
