<?xml version="1.0" encoding="iso-8859-1"?>
<!-- Generator: Adobe Illustrator 19.0.0, SVG Export Plug-In . SVG Version: 6.00 Build 0)  -->
<svg version="1.1" id="Layer_1" xmlns="http://www.w3.org/2000/svg" xmlns:xlink="http://www.w3.org/1999/xlink" x="0px" y="0px"
	 viewBox="0 0 491.52 491.52" style="enable-background:new 0 0 491.52 491.52;" xml:space="preserve">
<circle style="fill:#E05B49;" cx="245.76" cy="245.76" r="245.76"/>
<path style="opacity:0.1;enable-background:new    ;" d="M173.261,104.95v25.446h-10.24v56.064h-37.376
	c-4.147,0-7.526,3.379-7.526,7.578v142.797c0,2.202,0.922,4.198,2.458,5.581l0.051,0.051l147.985,147.958
	c114.916-10.602,206.851-100.299,220.956-214.166L318.259,104.95H173.261z"/>
<rect x="163.031" y="130.406" style="fill:#3A556A;" width="165.478" height="56.059"/>
<path style="fill:#64798A;" d="M373.421,194.024c0-4.176-3.385-7.562-7.562-7.562H125.661c-4.176,0-7.561,3.386-7.561,7.562v47.275
	h255.321V194.024z"/>
<rect x="118.118" y="241.306" style="fill:#2F4859;" width="255.319" height="11.336"/>
<rect x="173.276" y="104.96" style="fill:#EBF0F3;" width="144.968" height="76.544"/>
<rect x="173.276" y="109.921" style="fill:#FFFFFF;" width="144.968" height="76.544"/>
<path style="fill:#3A556A;" d="M118.099,252.636v84.201c0,4.176,3.385,7.562,7.561,7.562h38.684v-40.574
	c0-4.251,3.446-7.696,7.695-7.696h147.438c4.25,0,7.696,3.445,7.696,7.696v40.574h38.686c4.176,0,7.562-3.386,7.562-7.562v-84.201
	H118.099z"/>
<path style="fill:#2F4859;" d="M319.477,296.129H172.04c-4.25,0-7.695,3.445-7.695,7.696v40.574h162.829v-40.574
	C327.173,299.574,323.727,296.129,319.477,296.129z"/>
<rect x="173.276" y="310.016" style="fill:#EBF0F3;" width="144.968" height="76.544"/>
<rect x="173.276" y="305.05" style="fill:#FFFFFF;" width="144.968" height="76.544"/>
<rect x="181.576" y="310.016" style="fill:#E56353;" width="128.358" height="20.92"/>
<rect x="181.576" y="326.246" style="fill:#D15241;" width="128.358" height="4.69"/>
<g>
	<rect x="181.576" y="341.555" style="fill:#E1E6E9;" width="128.358" height="5.852"/>
	<rect x="181.576" y="356.096" style="fill:#E1E6E9;" width="128.358" height="5.852"/>
	<rect x="181.576" y="370.586" style="fill:#E1E6E9;" width="83.287" height="5.852"/>
</g>
<circle style="fill:#44C4A1;" cx="340.787" cy="202.173" r="5.432"/>
<circle style="fill:#D15241;" cx="359.373" cy="202.173" r="5.432"/>
<g>
</g>
<g>
</g>
<g>
</g>
<g>
</g>
<g>
</g>
<g>
</g>
<g>
</g>
<g>
</g>
<g>
</g>
<g>
</g>
<g>
</g>
<g>
</g>
<g>
</g>
<g>
</g>
<g>
</g>
</svg>
