<svg height="512" viewBox="0 0 128 128" width="512" xmlns="http://www.w3.org/2000/svg"><g id="Circle_Grid" data-name="Circle Grid"><circle cx="64" cy="64" fill="#2cbfae" r="64"/></g><g id="icon"><rect fill="#f6b863" height="73.289" rx="2.542" width="61.011" x="33.495" y="31.711"/><path d="m37.308 35.524h53.385v65.663h-53.385z" fill="#eeefee"/><g fill="#575b6d"><path d="m51.653 28.582h24.694a2 2 0 0 1 2 2v7.692a0 0 0 0 1 0 0h-28.694a0 0 0 0 1 0 0v-7.692a2 2 0 0 1 2-2z"/><path d="m64 19a5.793 5.793 0 0 0 -5.8 5.8v5.8h11.6v-5.8a5.794 5.794 0 0 0 -5.8-5.8zm0 8.339a2.543 2.543 0 1 1 2.543-2.539 2.537 2.537 0 0 1 -2.543 2.539z"/><path d="m53.995 55.016h-12.075v-12.088h12.075zm-10.645-1.43h9.215v-9.228h-9.215z"/></g><path d="m46.715 51.986-2.36-2.361.79-.789 1.57 1.571 4.055-4.054.789.789z" fill="#ef5261"/><path d="m56.749 47.436h28.877v1.678h-28.877z" fill="#dbd8dd"/><path d="m56.749 53.338h21.767v1.678h-21.767z" fill="#dbd8dd"/><path d="m53.995 74.781h-12.075v-12.089h12.075zm-10.645-1.431h9.215v-9.227h-9.215z" fill="#575b6d"/><path d="m46.715 71.751-2.36-2.361.79-.79 1.57 1.572 4.055-4.055.789.79z" fill="#ef5261"/><path d="m56.749 67.2h28.877v1.678h-28.877z" fill="#dbd8dd"/><path d="m56.749 73.102h21.767v1.678h-21.767z" fill="#dbd8dd"/><path d="m53.995 94.545h-12.075v-12.088h12.075zm-10.645-1.43h9.215v-9.228h-9.215z" fill="#575b6d"/><path d="m46.715 91.515-2.36-2.361.79-.789 1.57 1.571 4.055-4.054.789.789z" fill="#2cbfae"/><path d="m56.749 86.965h28.877v1.678h-28.877z" fill="#dbd8dd"/><path d="m56.749 92.867h21.767v1.678h-21.767z" fill="#dbd8dd"/></g></svg>