<svg height="512" viewBox="0 0 128 128" width="512" xmlns="http://www.w3.org/2000/svg"><g id="Circle_Grid" data-name="Circle Grid"><circle cx="64" cy="64" fill="#69b0ee" r="64"/></g><g id="icon"><rect fill="#eeefee" height="74.167" rx="3.333" width="80" x="24" y="26.917"/><path d="m104 30.25v12.083h-80v-12.083a3.343 3.343 0 0 1 3.333-3.333h73.333a3.343 3.343 0 0 1 3.334 3.333z" fill="#575b6d"/><circle cx="96.083" cy="34.625" fill="#ef5261" r="3.125"/><circle cx="86.292" cy="34.625" fill="#2cbfae" r="3.125"/><circle cx="76.5" cy="34.625" fill="#f6c863" r="3.125"/><path d="m28 46.333h20.083v20.083h-20.083z" fill="#dbd8dd"/><path d="m45.368 55.968-6.287 1.451-1.451 6.286-5.664-13.409z" fill="#eeefee"/><g fill="#dbd8dd"><path d="m29.679 84.172h10.4v10.408h-10.4z"/><path d="m49.093 84.172h10.4v10.408h-10.4z"/><path d="m68.507 84.172h10.4v10.408h-10.4z"/><path d="m87.921 84.172h10.4v10.408h-10.4z"/><path d="m28.571 71.167h51.117v1.938h-51.117z"/><path d="m51.904 49.327h44.729v1.938h-44.729z"/><path d="m51.904 55.406h44.729v1.938h-44.729z"/><path d="m51.904 61.485h44.729v1.938h-44.729z"/><path d="m28.571 77.042h70.125v1.938h-70.125z"/></g></g></svg>