<?xml version="1.0" encoding="iso-8859-1"?>
<!-- Generator: Adobe Illustrator 19.0.0, SVG Export Plug-In . SVG Version: 6.00 Build 0)  -->
<svg version="1.1" id="Layer_1" xmlns="http://www.w3.org/2000/svg" xmlns:xlink="http://www.w3.org/1999/xlink" x="0px" y="0px"
	 viewBox="0 0 491.52 491.52" style="enable-background:new 0 0 491.52 491.52;" xml:space="preserve">
<circle style="fill:#45B39C;" cx="245.76" cy="245.76" r="245.76"/>
<path style="opacity:0.1;enable-background:new    ;" d="M305.254,179.251l-0.87-0.871l-0.051,0.051
	c-15.667-13.67-36.147-22.016-58.573-22.016c-12.339,0-24.115,2.56-34.816,7.117l-17.101-17.101l-44.442-41.472l-44.442,41.472
	l20.531,20.531v75.162l37.734,37.734c4.915,11.827,12.288,22.323,21.402,30.925v0.051c0,0,84.016,84.032,159.932,159.953
	c56.22-24.72,101.392-69.864,126.153-126.061L312.166,186.214C310.016,183.757,307.661,181.453,305.254,179.251z"/>
<polygon style="fill:#EBF0F3;" points="366.034,345.072 366.034,249.411 318.227,249.411 318.227,345.072 297.701,345.072 
	342.131,386.56 386.56,345.072 "/>
<polygon style="fill:#E56353;" points="125.486,146.448 125.486,242.109 173.293,242.109 173.293,146.448 193.819,146.448 
	149.389,104.96 104.96,146.448 "/>
<ellipse style="fill:#FCD462;" cx="245.76" cy="245.76" rx="89.308" ry="89.37"/>
<ellipse style="fill:#F6C358;" cx="245.76" cy="245.76" rx="74.409" ry="74.455"/>
<path style="fill:#DC8744;" d="M242.69,303.704v-10.205c-12.767-1.303-24.227-6.382-34.368-15.233l10.198-12.162
	c7.822,6.803,15.871,10.853,24.17,12.162v-27.122c-10.528-2.514-18.236-5.825-23.124-9.926c-4.889-4.101-7.333-10.182-7.333-18.242
	c0-8.06,2.808-14.653,8.447-19.784c5.639-5.125,12.972-7.918,22.01-8.385v-6.991h8.936v7.127
	c10.243,0.751,19.93,4.243,29.059,10.489l-9.084,12.861c-6.151-4.38-12.801-7.082-19.975-8.112v26.28h0.421
	c10.71,2.52,18.577,5.922,23.602,10.205c5.036,4.289,7.549,10.512,7.549,18.663c0,8.157-2.888,14.801-8.663,19.921
	c-5.775,5.131-13.404,7.924-22.908,8.39v10.063H242.69z M232.834,213.47c-2.376,2.093-3.558,4.704-3.558,7.827
	c0,3.123,0.932,5.592,2.797,7.406c1.853,1.82,5.4,3.567,10.619,5.245v-24.187C238.495,210.137,235.21,211.371,232.834,213.47z
	 M262.245,274.768c2.603-2.139,3.911-4.841,3.911-8.106c0-3.259-1.023-5.848-3.07-7.759c-2.058-1.911-5.878-3.703-11.46-5.381v25.16
	C256.094,278.22,259.63,276.912,262.245,274.768z"/>
<g>
</g>
<g>
</g>
<g>
</g>
<g>
</g>
<g>
</g>
<g>
</g>
<g>
</g>
<g>
</g>
<g>
</g>
<g>
</g>
<g>
</g>
<g>
</g>
<g>
</g>
<g>
</g>
<g>
</g>
</svg>
