<svg height="512" viewBox="0 0 128 128" width="512" xmlns="http://www.w3.org/2000/svg"><g id="Circle_Grid" data-name="Circle Grid"><circle cx="64" cy="64" fill="#ea8953" r="64"/></g><g id="icon"><path d="m52.68 85.973h22.64v8.743h-22.64z" fill="#575b6d"/><rect fill="#62667c" height="56.047" rx="2" width="82" x="23" y="30.938"/><path d="m42.051 20.722h43.899v73.165h-43.899z" fill="#eeefee" transform="matrix(0 1 -1 0 121.305 -6.695)"/><rect fill="#62667c" height="3.589" rx=".562" width="40.402" x="43.799" y="93.473"/><circle cx="64" cy="83.12" fill="#dbd8dd" r="1.311"/><path d="m40.375 43.83h47.25v26.949h-47.25z" fill="#2cbfae"/><path d="m42.18 45.635h43.64v23.338h-43.64z" fill="#16a897"/><path d="m44.378 62.381v-10.153a4.4 4.4 0 0 0 4.4-4.4h30.449a4.4 4.4 0 0 0 4.4 4.4v10.153a4.4 4.4 0 0 0 -4.4 4.4h-30.454a4.4 4.4 0 0 0 -4.395-4.4z" fill="#2cbfae"/><ellipse cx="64" cy="57.305" fill="#16a897" rx="5.588" ry="7.555"/><path d="m63.592 62.233v-1.212a3.5 3.5 0 0 1 -1.837-.528l.288-.8a3.2 3.2 0 0 0 1.729.516c.852 0 1.428-.492 1.428-1.177 0-.66-.468-1.069-1.357-1.429-1.224-.48-1.981-1.032-1.981-2.077a1.969 1.969 0 0 1 1.812-1.933v-1.217h.745v1.164a3.2 3.2 0 0 1 1.56.42l-.3.792a2.9 2.9 0 0 0 -1.512-.408c-.925 0-1.273.552-1.273 1.032 0 .624.444.937 1.489 1.369 1.237.5 1.86 1.129 1.86 2.2a2.088 2.088 0 0 1 -1.9 2.041v1.248z" fill="#eeefee"/><g fill="#16a897"><ellipse cx="76.431" cy="57.305" rx="1.593" ry="1.588"/><ellipse cx="51.569" cy="57.305" rx="1.593" ry="1.588"/></g></g></svg>