<svg height="512" viewBox="0 0 128 128" width="512" xmlns="http://www.w3.org/2000/svg"><g id="Circle_Grid" data-name="Circle Grid"><circle cx="64" cy="64" fill="#3b5059" r="64"/></g><g id="icon"><path d="m89.338 41.89v63.098h-56.618v-76.033h43.683z" fill="#dbd8dd"/><path d="m95.28 35.947v63.098h-56.618v-76.033h43.683z" fill="#eeefee"/><path d="m95.28 35.947h-12.935v-12.935z" fill="#dbd8dd"/><path d="m42.908 28.506v11.943h11.926v-11.943zm10.251 10.322h-8.576v-8.576h8.576z" fill="#ef5261"/><path d="m47.771 37.004-1.995-1.994.858-.858 1.137 1.136 3.337-3.337.858.858z" fill="#ef5261"/><path d="m57.463 38.626h19.718v1.824h-19.718z" fill="#dbd8dd"/><path d="m57.463 32.66h19.718v1.824h-19.718z" fill="#dbd8dd"/><path d="m42.908 46.207v11.943h11.926v-11.943zm10.251 10.322h-8.576v-8.577h8.576z" fill="#ef5261"/><path d="m47.771 54.705-1.995-1.994.858-.858 1.137 1.136 3.337-3.337.858.858z" fill="#ef5261"/><path d="m57.463 56.326h33.571v1.824h-33.571z" fill="#dbd8dd"/><path d="m57.463 50.361h19.718v1.824h-19.718z" fill="#dbd8dd"/><path d="m42.908 63.907v11.944h11.926v-11.944zm10.251 10.322h-8.576v-8.576h8.576z" fill="#ef5261"/><path d="m47.771 72.406-1.995-1.995.858-.858 1.137 1.137 3.337-3.338.858.858z" fill="#ef5261"/><path d="m57.463 74.027h33.571v1.824h-33.571z" fill="#dbd8dd"/><path d="m57.463 68.062h19.718v1.824h-19.718z" fill="#dbd8dd"/><path d="m42.908 81.608v11.944h11.926v-11.944zm10.251 10.322h-8.576v-8.576h8.576z" fill="#ef5261"/><path d="m47.771 90.106-1.995-1.994.858-.858 1.137 1.137 3.337-3.338.858.858z" fill="#ef5261"/><g fill="#dbd8dd"><path d="m57.463 91.728h33.571v1.824h-33.571z"/><path d="m57.463 85.763h19.718v1.824h-19.718z"/></g></g></svg>