<?xml version="1.0" encoding="iso-8859-1"?>
<!-- Generator: Adobe Illustrator 19.0.0, SVG Export Plug-In . SVG Version: 6.00 Build 0)  -->
<svg version="1.1" id="Layer_1" xmlns="http://www.w3.org/2000/svg" xmlns:xlink="http://www.w3.org/1999/xlink" x="0px" y="0px"
	 viewBox="0 0 491.52 491.52" style="enable-background:new 0 0 491.52 491.52;" xml:space="preserve">
<circle style="fill:#EFC84A;" cx="245.76" cy="245.76" r="245.76"/>
<path style="opacity:0.1;enable-background:new    ;" d="M104.96,104.95v257.178c0,6.349,2.406,12.083,6.4,16.435L223.247,490.45
	c7.419,0.674,14.918,1.07,22.513,1.07c131.506,0,238.886-103.29,245.442-233.167L337.766,104.95H104.96z"/>
<path style="fill:#EBF0F3;" d="M337.749,362.154v-4.686V215.845V104.96H104.96v257.178c0,13.488,10.934,24.422,24.421,24.422
	h232.773C348.676,386.56,337.749,375.633,337.749,362.154z"/>
<path style="fill:#D5D6DB;" d="M337.749,215.845v141.623v4.686c0,13.479,10.927,24.406,24.405,24.406
	c13.478,0,24.406-10.927,24.406-24.406v-146.31H337.749z"/>
<rect x="121.866" y="121.364" style="fill:#E56353;" width="201.267" height="59.489"/>
<rect x="121.866" y="171.96" style="fill:#D15241;" width="201.267" height="8.893"/>
<rect x="121.866" y="198.543" style="fill:#FCD462;" width="201.267" height="8.899"/>
<rect x="121.866" y="225.132" style="fill:#D5D6DB;" width="92.979" height="8.893"/>
<rect x="230.139" y="225.132" style="fill:#27A2DB;" width="92.979" height="8.893"/>
<g>
	<rect x="121.866" y="251.699" style="fill:#D5D6DB;" width="92.979" height="8.899"/>
	<rect x="230.139" y="251.699" style="fill:#D5D6DB;" width="92.979" height="8.899"/>
	<rect x="230.139" y="278.323" style="fill:#D5D6DB;" width="92.979" height="8.893"/>
	<rect x="230.139" y="304.896" style="fill:#D5D6DB;" width="92.979" height="8.893"/>
	<rect x="230.139" y="331.484" style="fill:#D5D6DB;" width="92.979" height="8.893"/>
	<rect x="230.139" y="358.072" style="fill:#D5D6DB;" width="92.979" height="8.893"/>
</g>
<g>
	<circle style="fill:#64798A;" cx="170.394" cy="295.014" r="18.058"/>
	<path style="fill:#64798A;" d="M168.358,322.934c-24.317,0-44.031,19.714-44.031,44.031h88.063
		C212.39,342.648,192.676,322.934,168.358,322.934z"/>
</g>
<g>
</g>
<g>
</g>
<g>
</g>
<g>
</g>
<g>
</g>
<g>
</g>
<g>
</g>
<g>
</g>
<g>
</g>
<g>
</g>
<g>
</g>
<g>
</g>
<g>
</g>
<g>
</g>
<g>
</g>
</svg>
