<svg id="Capa_1" enable-background="new 0 0 511.181 511.181" height="512" viewBox="0 0 511.181 511.181" width="512" xmlns="http://www.w3.org/2000/svg"><g><path d="m175.59 469.681h-96.52v-215h30v185h66.52z" fill="#ecf9fd"/><path d="m435.139 469.68h-99.55v-30h69.55v-185h30z" fill="#d9f3fc"/><path d="m470.59 143.702h-106.959c-22.056 0-40 17.944-40 40v85.979h186.959v-85.979c0-22.056-17.944-40-40-40z" fill="#895140"/><path d="m147.549 143.702h-106.959c-22.056 0-40 17.944-40 40v85.979h186.959v-85.979c0-22.056-17.944-40-40-40z" fill="#c9885b"/><ellipse cx="95.59" cy="86.602" fill="#ffd5b6" rx="76.937" ry="86.602"/><ellipse cx="415.548" cy="86.602" fill="#ffc896" rx="76.936" ry="86.602"/><path d="m162.73 44.361c-34.074 34.174-92.255 47.072-143.87 35.86 2.91-44.78 36.22-80.22 76.73-80.22 28.8 0 53.97 17.91 67.14 44.36z" fill="#fed843"/><path d="m492.29 80.551c-50.759 10.877-109.208-1.277-144.05-35.86 13.13-26.63 38.38-44.69 67.31-44.69 40.61 0 73.97 35.61 76.74 80.55z" fill="#fabe2c"/><path d="m356.67 414.041v97.14h-205.2v-97.14c0-22.05 17.94-40 40-40h125.2c22.06 0 40 17.95 40 40z" fill="#5c7099"/><path d="m356.67 414.041v97.14h-101.08v-137.14h61.08c22.06 0 40 17.95 40 40z" fill="#404a80"/><ellipse cx="254.07" cy="304.811" fill="#ffd5b6" rx="89.56" ry="98.81"/><path d="m343.63 304.811c0 53.92-39.35 97.9-88.04 98.79v-197.58c48.69.89 88.04 44.87 88.04 98.79z" fill="#ffc896"/><path d="m331.81 255.801c-40.129 41.242-109.613 53.904-167.02 41.12 3.66-50.81 42.3-90.92 89.28-90.92 33.042 0 62.195 19.874 77.74 49.8z" fill="#fed843"/><path d="m331.81 255.801c-18.39 18.9-45.05 33.34-76.22 40.64v-90.43c32.59.6 61.01 20.51 76.22 49.79z" fill="#fabe2c"/></g></svg>