<svg height="512" viewBox="0 0 128 128" width="512" xmlns="http://www.w3.org/2000/svg"><g id="Circle_Grid" data-name="Circle Grid"><circle cx="64" cy="64" fill="#69b0ee" r="64"/></g><g id="icon"><rect fill="#eeefee" height="54.157" rx="3.32" width="83" x="22.5" y="36.921"/><path d="m22.5 45.29h83v9.407h-83z" fill="#575b6d"/><g fill="#62667c"><path d="m99.016 54.697h-2.179l6.484-9.407h2.179z"/><path d="m92.843 54.697h-2.179l6.484-9.407h2.179z"/><path d="m86.669 54.697h-2.178l6.484-9.407h2.179z"/><path d="m80.496 54.697h-2.178l6.484-9.407h2.179z"/><path d="m74.323 54.697h-2.179l6.485-9.407h2.179z"/><path d="m68.15 54.697h-2.179l6.485-9.407h2.178z"/><path d="m61.977 54.697h-2.179l6.484-9.407h2.179z"/><path d="m55.804 54.697h-2.179l6.484-9.407h2.179z"/><path d="m49.631 54.697h-2.179l6.484-9.407h2.179z"/><path d="m43.458 54.697h-2.179l6.484-9.407h2.179z"/><path d="m37.284 54.697h-2.178l6.484-9.407h2.179z"/><path d="m31.111 54.697h-2.178l6.484-9.407h2.179z"/><path d="m24.938 54.697h-2.179l6.485-9.407h2.179z"/></g><path d="m27.523 61.06h10.297v2.801h-10.297z" fill="#dbd8dd"/><path d="m27.523 73.407h52.068v2.322h-52.068z" fill="#dbd8dd"/><path d="m27.523 81.46h72.954v2.322h-72.954z" fill="#dbd8dd"/><path d="m48.409 61.06h10.297v2.801h-10.297z" fill="#dbd8dd"/><path d="m69.295 61.06h10.297v2.801h-10.297z" fill="#dbd8dd"/><path d="m90.18 61.06h10.297v2.801h-10.297z" fill="#dbd8dd"/></g></svg>