<?xml version="1.0" encoding="iso-8859-1"?>
<!-- Generator: Adobe Illustrator 19.0.0, SVG Export Plug-In . SVG Version: 6.00 Build 0)  -->
<svg version="1.1" id="Layer_1" xmlns="http://www.w3.org/2000/svg" xmlns:xlink="http://www.w3.org/1999/xlink" x="0px" y="0px"
	 viewBox="0 0 491.52 491.52" style="enable-background:new 0 0 491.52 491.52;" xml:space="preserve">
<circle style="fill:#EFC84A;" cx="245.76" cy="245.76" r="245.76"/>
<path style="opacity:0.1;enable-background:new    ;" d="M382.669,126.249c-2.304-2.202-5.376-3.584-8.806-3.584H117.658
	c-7.014,0-12.698,5.734-12.698,12.749V313.59c0,3.226,1.178,6.144,3.123,8.346l1.075,1.075l0.461,0.41l166.203,166.204
	C397.361,474.789,491.52,371.304,491.52,245.76c0-3.659-0.117-7.29-0.276-10.91L382.822,126.403L382.669,126.249z"/>
<path style="fill:#64798A;" d="M373.837,122.678H117.683c-7.027,0-12.723,5.696-12.723,12.723v178.213
	c0,7.026,5.696,12.723,12.723,12.723h256.154c7.027,0,12.723-5.697,12.723-12.723V135.401
	C386.56,128.374,380.863,122.678,373.837,122.678z"/>
<rect x="122.726" y="140.442" style="fill:#EBF0F3;" width="246.067" height="152.765"/>
<path style="fill:#3A556A;" d="M172.595,359.827c0,4.979,32.757,9.014,73.165,9.014c40.408,0,73.165-4.036,73.165-9.014v-10.368
	H172.595V359.827z"/>
<rect x="122.726" y="284.672" style="fill:#E1E6E9;" width="246.067" height="8.53"/>
<ellipse style="fill:#64798A;" cx="245.76" cy="349.44" rx="73.165" ry="9.016"/>
<path style="fill:#3A556A;" d="M269.747,347.212c-0.001,4.801-47.974,4.801-47.973,0l0-20.875h47.974L269.747,347.212z"/>
<circle style="fill:#FCD462;" cx="126.889" cy="314.522" r="4.163"/>
<circle style="fill:#44C4A1;" cx="142.648" cy="314.522" r="4.163"/>
<circle style="fill:#27A2DB;" cx="158.408" cy="314.522" r="4.163"/>
<path style="fill:#E56353;" d="M333.39,219.861c-2.851,0-5.311,1.566-6.645,3.867h-35.349l-9.8,23.19l-17.78-95.648l-31.475,100.055
	l-21.105-73.408l-30.39,45.81h-16.072c-1.332-2.301-3.793-3.867-6.645-3.867c-4.256,0-7.707,3.45-7.707,7.707
	c0,4.256,3.451,7.706,7.707,7.706c2.85,0,5.311-1.565,6.644-3.866h20.432l22.93-33.31l23.695,84.287l30.375-96.03l16.35,87.502
	l17.93-42.45h30.261c1.332,2.3,3.793,3.866,6.644,3.866c4.256,0,7.706-3.45,7.706-7.706
	C341.096,223.311,337.647,219.861,333.39,219.861z"/>
<g>
</g>
<g>
</g>
<g>
</g>
<g>
</g>
<g>
</g>
<g>
</g>
<g>
</g>
<g>
</g>
<g>
</g>
<g>
</g>
<g>
</g>
<g>
</g>
<g>
</g>
<g>
</g>
<g>
</g>
</svg>
